<svg xmlns="http://www.w3.org/2000/svg" width="1545" height="1999" viewBox="0 0 1545 1999" data-template-variant="answer-key" data-template-version="1.0.0" data-level="level2" data-page="1">
  <rect width="1545" height="1999" fill="#faf8f8"/>
  <text x="145" y="160" fill="#153657" font-family="Arial, Helvetica, sans-serif" font-size="58" font-weight="700">Answer Keys (Level 2)</text>
  <rect x="150" y="190" width="620" height="100" fill="none" stroke="#111" stroke-width="3"/><text x="168" y="225" fill="#111" font-family="Arial, Helvetica, sans-serif" font-size="20">Q1: 96 cars</text>
<rect x="782" y="190" width="612" height="100" fill="none" stroke="#111" stroke-width="3"/><text x="800" y="225" fill="#111" font-family="Arial, Helvetica, sans-serif" font-size="20">Q2: 126 panels</text>
<rect x="150" y="300" width="620" height="100" fill="none" stroke="#111" stroke-width="3"/><text x="168" y="335" fill="#111" font-family="Arial, Helvetica, sans-serif" font-size="20">Q3: 15 radios</text>
<rect x="782" y="300" width="612" height="100" fill="none" stroke="#111" stroke-width="3"/><text x="800" y="335" fill="#111" font-family="Arial, Helvetica, sans-serif" font-size="20">Q4: 196 minutes, or 3 hours 16 minutes</text>
<rect x="150" y="410" width="620" height="100" fill="none" stroke="#111" stroke-width="3"/><text x="168" y="445" fill="#111" font-family="Arial, Helvetica, sans-serif" font-size="20">Q5: 48 teachers; 144 pens</text>
<rect x="782" y="410" width="612" height="100" fill="none" stroke="#111" stroke-width="3"/><text x="800" y="445" fill="#111" font-family="Arial, Helvetica, sans-serif" font-size="20">Q6: 120 people</text>
<rect x="150" y="520" width="620" height="100" fill="none" stroke="#111" stroke-width="3"/><text x="168" y="555" fill="#111" font-family="Arial, Helvetica, sans-serif" font-size="20">Q7: 10 seconds per item; 100 seconds for</text>
<text x="168" y="575" fill="#111" font-family="Arial, Helvetica, sans-serif" font-size="20">10 items</text>
<rect x="782" y="520" width="612" height="100" fill="none" stroke="#111" stroke-width="3"/><text x="800" y="555" fill="#111" font-family="Arial, Helvetica, sans-serif" font-size="20">Q8: 15 hearts; 45 brains</text>
<rect x="150" y="630" width="620" height="100" fill="none" stroke="#111" stroke-width="3"/><text x="168" y="665" fill="#111" font-family="Arial, Helvetica, sans-serif" font-size="20">Q9: 200 letters</text>
<rect x="782" y="630" width="612" height="100" fill="none" stroke="#111" stroke-width="3"/><text x="800" y="665" fill="#111" font-family="Arial, Helvetica, sans-serif" font-size="20">Q10: 420 minutes, or 7 hours</text>
<rect x="150" y="740" width="620" height="100" fill="none" stroke="#111" stroke-width="3"/><text x="168" y="775" fill="#111" font-family="Arial, Helvetica, sans-serif" font-size="20">Q11: 270 books</text>
<rect x="782" y="740" width="612" height="100" fill="none" stroke="#111" stroke-width="3"/><text x="800" y="775" fill="#111" font-family="Arial, Helvetica, sans-serif" font-size="20">Q12: 8 experiments</text>
<rect x="150" y="850" width="620" height="100" fill="none" stroke="#111" stroke-width="3"/><text x="168" y="885" fill="#111" font-family="Arial, Helvetica, sans-serif" font-size="20">Q13: 720 food packs</text>
<rect x="782" y="850" width="612" height="100" fill="none" stroke="#111" stroke-width="3"/><text x="800" y="885" fill="#111" font-family="Arial, Helvetica, sans-serif" font-size="20">Q14: 2,132 kilometers</text>
<rect x="150" y="960" width="620" height="100" fill="none" stroke="#111" stroke-width="3"/><text x="168" y="995" fill="#111" font-family="Arial, Helvetica, sans-serif" font-size="20">Q15: 120 handwashes</text>
<rect x="782" y="960" width="612" height="100" fill="none" stroke="#111" stroke-width="3"/><text x="800" y="995" fill="#111" font-family="Arial, Helvetica, sans-serif" font-size="20">Q16: 100 days</text>
<rect x="150" y="1070" width="620" height="100" fill="none" stroke="#111" stroke-width="3"/><text x="168" y="1105" fill="#111" font-family="Arial, Helvetica, sans-serif" font-size="20">Q17: 20 cans</text>
<rect x="782" y="1070" width="612" height="100" fill="none" stroke="#111" stroke-width="3"/><text x="800" y="1105" fill="#111" font-family="Arial, Helvetica, sans-serif" font-size="20">Q18: 56 songs</text>
<rect x="150" y="1180" width="620" height="100" fill="none" stroke="#111" stroke-width="3"/><text x="168" y="1215" fill="#111" font-family="Arial, Helvetica, sans-serif" font-size="20">Q19: $37 per lamp; $185 for 5 lamps</text>
<rect x="782" y="1180" width="612" height="100" fill="none" stroke="#111" stroke-width="3"/><text x="800" y="1215" fill="#111" font-family="Arial, Helvetica, sans-serif" font-size="20">Q20: 520 books</text>
<rect x="150" y="1290" width="620" height="100" fill="none" stroke="#111" stroke-width="3"/><text x="168" y="1325" fill="#111" font-family="Arial, Helvetica, sans-serif" font-size="20">Q21: 60 watts; 300 watt-hours</text>
<rect x="782" y="1290" width="612" height="100" fill="none" stroke="#111" stroke-width="3"/><text x="800" y="1325" fill="#111" font-family="Arial, Helvetica, sans-serif" font-size="20">Q22: 2 minutes; 6 minutes</text>
<rect x="150" y="1400" width="620" height="100" fill="none" stroke="#111" stroke-width="3"/><text x="168" y="1435" fill="#111" font-family="Arial, Helvetica, sans-serif" font-size="20">Q23: 900 minutes</text>
<rect x="782" y="1400" width="612" height="100" fill="none" stroke="#111" stroke-width="3"/><text x="800" y="1435" fill="#111" font-family="Arial, Helvetica, sans-serif" font-size="20">Q24: 17 floors</text>
<rect x="150" y="1510" width="620" height="100" fill="none" stroke="#111" stroke-width="3"/><text x="168" y="1545" fill="#111" font-family="Arial, Helvetica, sans-serif" font-size="20">Q25: 60 paintings per year</text>
<rect x="782" y="1510" width="612" height="100" fill="none" stroke="#111" stroke-width="3"/><text x="800" y="1545" fill="#111" font-family="Arial, Helvetica, sans-serif" font-size="20">Q26: 12 days</text>
<rect x="150" y="1620" width="620" height="100" fill="none" stroke="#111" stroke-width="3"/><text x="168" y="1655" fill="#111" font-family="Arial, Helvetica, sans-serif" font-size="20">Q27: 10 tickets</text>
<rect x="782" y="1620" width="612" height="100" fill="none" stroke="#111" stroke-width="3"/><text x="800" y="1655" fill="#111" font-family="Arial, Helvetica, sans-serif" font-size="20">Q28: 154 steps</text>
<rect x="150" y="1730" width="620" height="100" fill="none" stroke="#111" stroke-width="3"/><text x="168" y="1765" fill="#111" font-family="Arial, Helvetica, sans-serif" font-size="20">Q29: 300,000 kilometers</text>
<rect x="782" y="1730" width="612" height="100" fill="none" stroke="#111" stroke-width="3"/><text x="800" y="1765" fill="#111" font-family="Arial, Helvetica, sans-serif" font-size="20">Q30: 40 minutes; 2/3 of the drama</text>
<rect x="150" y="1840" width="620" height="100" fill="none" stroke="#111" stroke-width="3"/><text x="168" y="1875" fill="#111" font-family="Arial, Helvetica, sans-serif" font-size="20">Q31: 3 times</text>
<rect x="782" y="1840" width="612" height="100" fill="none" stroke="#111" stroke-width="3"/>
  <g transform="translate(1400 1800) scale(0.45)" fill="none" stroke="#f18a5b" stroke-width="6"><path d="M100 8 190 62v112l-90 54-90-54V62Z"/><path d="M45 139h110"/><circle cx="153" cy="139" r="4" fill="#f18a5b"/>
    <text x="100" y="115" fill="#f18a5b" stroke="none" text-anchor="middle" font-family="Arial, Helvetica, sans-serif" font-size="78" font-weight="700">6</text>
    <text x="153" y="117" fill="#f18a5b" stroke="none" text-anchor="middle" font-family="Arial, Helvetica, sans-serif" font-size="28">pm</text>
    <text x="100" y="160" fill="#f18a5b" stroke="none" text-anchor="middle" font-family="Arial, Helvetica, sans-serif" font-size="25">studio</text>
  </g>
</svg>
