<svg xmlns="http://www.w3.org/2000/svg" width="1545" height="1999" viewBox="0 0 1545 1999" data-template-variant="answer-key" data-template-version="1.0.0" data-level="level1" data-page="1">
  <rect width="1545" height="1999" fill="#faf8f8"/>
  <text x="145" y="160" fill="#153657" font-family="Arial, Helvetica, sans-serif" font-size="58" font-weight="700">Answer Keys (Level 1)</text>
  <rect x="150" y="190" width="620" height="100" fill="none" stroke="#111" stroke-width="3"/><text x="168" y="225" fill="#111" font-family="Arial, Helvetica, sans-serif" font-size="20">Q1: 22 seconds of fuel would be left.</text>
<rect x="782" y="190" width="612" height="100" fill="none" stroke="#111" stroke-width="3"/>
<rect x="150" y="300" width="620" height="100" fill="none" stroke="#111" stroke-width="3"/>
<rect x="782" y="300" width="612" height="100" fill="none" stroke="#111" stroke-width="3"/>
<rect x="150" y="410" width="620" height="100" fill="none" stroke="#111" stroke-width="3"/>
<rect x="782" y="410" width="612" height="100" fill="none" stroke="#111" stroke-width="3"/>
<rect x="150" y="520" width="620" height="100" fill="none" stroke="#111" stroke-width="3"/>
<rect x="782" y="520" width="612" height="100" fill="none" stroke="#111" stroke-width="3"/>
<rect x="150" y="630" width="620" height="100" fill="none" stroke="#111" stroke-width="3"/>
<rect x="782" y="630" width="612" height="100" fill="none" stroke="#111" stroke-width="3"/>
<rect x="150" y="740" width="620" height="100" fill="none" stroke="#111" stroke-width="3"/>
<rect x="782" y="740" width="612" height="100" fill="none" stroke="#111" stroke-width="3"/>
<rect x="150" y="850" width="620" height="100" fill="none" stroke="#111" stroke-width="3"/>
<rect x="782" y="850" width="612" height="100" fill="none" stroke="#111" stroke-width="3"/>
<rect x="150" y="960" width="620" height="100" fill="none" stroke="#111" stroke-width="3"/>
<rect x="782" y="960" width="612" height="100" fill="none" stroke="#111" stroke-width="3"/>
<rect x="150" y="1070" width="620" height="100" fill="none" stroke="#111" stroke-width="3"/>
<rect x="782" y="1070" width="612" height="100" fill="none" stroke="#111" stroke-width="3"/>
<rect x="150" y="1180" width="620" height="100" fill="none" stroke="#111" stroke-width="3"/>
<rect x="782" y="1180" width="612" height="100" fill="none" stroke="#111" stroke-width="3"/>
<rect x="150" y="1290" width="620" height="100" fill="none" stroke="#111" stroke-width="3"/>
<rect x="782" y="1290" width="612" height="100" fill="none" stroke="#111" stroke-width="3"/>
<rect x="150" y="1400" width="620" height="100" fill="none" stroke="#111" stroke-width="3"/>
<rect x="782" y="1400" width="612" height="100" fill="none" stroke="#111" stroke-width="3"/>
<rect x="150" y="1510" width="620" height="100" fill="none" stroke="#111" stroke-width="3"/>
<rect x="782" y="1510" width="612" height="100" fill="none" stroke="#111" stroke-width="3"/>
<rect x="150" y="1620" width="620" height="100" fill="none" stroke="#111" stroke-width="3"/>
<rect x="782" y="1620" width="612" height="100" fill="none" stroke="#111" stroke-width="3"/>
<rect x="150" y="1730" width="620" height="100" fill="none" stroke="#111" stroke-width="3"/>
<rect x="782" y="1730" width="612" height="100" fill="none" stroke="#111" stroke-width="3"/>
<rect x="150" y="1840" width="620" height="100" fill="none" stroke="#111" stroke-width="3"/>
<rect x="782" y="1840" width="612" height="100" fill="none" stroke="#111" stroke-width="3"/>
  <g transform="translate(1400 1800) scale(0.45)" fill="none" stroke="#f18a5b" stroke-width="6"><path d="M100 8 190 62v112l-90 54-90-54V62Z"/><path d="M45 139h110"/><circle cx="153" cy="139" r="4" fill="#f18a5b"/>
    <text x="100" y="115" fill="#f18a5b" stroke="none" text-anchor="middle" font-family="Arial, Helvetica, sans-serif" font-size="78" font-weight="700">6</text>
    <text x="153" y="117" fill="#f18a5b" stroke="none" text-anchor="middle" font-family="Arial, Helvetica, sans-serif" font-size="28">pm</text>
    <text x="100" y="160" fill="#f18a5b" stroke="none" text-anchor="middle" font-family="Arial, Helvetica, sans-serif" font-size="25">studio</text>
  </g>
</svg>
