<svg xmlns="http://www.w3.org/2000/svg" width="1545" height="1999" viewBox="0 0 1545 1999" data-template-variant="answer-key" data-template-version="1.0.0" data-level="level1" data-page="1">
  <rect width="1545" height="1999" fill="#faf8f8"/>
  <text x="145" y="160" fill="#153657" font-family="Arial, Helvetica, sans-serif" font-size="58" font-weight="700">Answer Keys (Level 1)</text>
  <rect x="150" y="190" width="620" height="100" fill="none" stroke="#111" stroke-width="3"/><text x="168" y="225" fill="#111" font-family="Arial, Helvetica, sans-serif" font-size="20">Q1: 20 pieces of fruit</text>
<rect x="782" y="190" width="612" height="100" fill="none" stroke="#111" stroke-width="3"/><text x="800" y="225" fill="#111" font-family="Arial, Helvetica, sans-serif" font-size="20">Q2: 6 astronauts</text>
<rect x="150" y="300" width="620" height="100" fill="none" stroke="#111" stroke-width="3"/><text x="168" y="335" fill="#111" font-family="Arial, Helvetica, sans-serif" font-size="20">Q3: 11 cans</text>
<rect x="782" y="300" width="612" height="100" fill="none" stroke="#111" stroke-width="3"/><text x="800" y="335" fill="#111" font-family="Arial, Helvetica, sans-serif" font-size="20">Q4: 16 boxes</text>
<rect x="150" y="410" width="620" height="100" fill="none" stroke="#111" stroke-width="3"/><text x="168" y="445" fill="#111" font-family="Arial, Helvetica, sans-serif" font-size="20">Q5: 9 spaces</text>
<rect x="782" y="410" width="612" height="100" fill="none" stroke="#111" stroke-width="3"/><text x="800" y="445" fill="#111" font-family="Arial, Helvetica, sans-serif" font-size="20">Q6: 5 points</text>
<rect x="150" y="520" width="620" height="100" fill="none" stroke="#111" stroke-width="3"/><text x="168" y="555" fill="#111" font-family="Arial, Helvetica, sans-serif" font-size="20">Q7: 14 test tubes</text>
<rect x="782" y="520" width="612" height="100" fill="none" stroke="#111" stroke-width="3"/><text x="800" y="555" fill="#111" font-family="Arial, Helvetica, sans-serif" font-size="20">Q8: 12 pictures</text>
<rect x="150" y="630" width="620" height="100" fill="none" stroke="#111" stroke-width="3"/><text x="168" y="665" fill="#111" font-family="Arial, Helvetica, sans-serif" font-size="20">Q9: 17 stones</text>
<rect x="782" y="630" width="612" height="100" fill="none" stroke="#111" stroke-width="3"/><text x="800" y="665" fill="#111" font-family="Arial, Helvetica, sans-serif" font-size="20">Q10: 11 cookies</text>
<rect x="150" y="740" width="620" height="100" fill="none" stroke="#111" stroke-width="3"/><text x="168" y="775" fill="#111" font-family="Arial, Helvetica, sans-serif" font-size="20">Q11: 15 cranes</text>
<rect x="782" y="740" width="612" height="100" fill="none" stroke="#111" stroke-width="3"/><text x="800" y="775" fill="#111" font-family="Arial, Helvetica, sans-serif" font-size="20">Q12: 9 photos</text>
<rect x="150" y="850" width="620" height="100" fill="none" stroke="#111" stroke-width="3"/><text x="168" y="885" fill="#111" font-family="Arial, Helvetica, sans-serif" font-size="20">Q13: 20 items</text>
<rect x="782" y="850" width="612" height="100" fill="none" stroke="#111" stroke-width="3"/><text x="800" y="885" fill="#111" font-family="Arial, Helvetica, sans-serif" font-size="20">Q14: 12 choices</text>
<rect x="150" y="960" width="620" height="100" fill="none" stroke="#111" stroke-width="3"/><text x="168" y="995" fill="#111" font-family="Arial, Helvetica, sans-serif" font-size="20">Q15: 12 parts</text>
<rect x="782" y="960" width="612" height="100" fill="none" stroke="#111" stroke-width="3"/><text x="800" y="995" fill="#111" font-family="Arial, Helvetica, sans-serif" font-size="20">Q16: 17 sites</text>
<rect x="150" y="1070" width="620" height="100" fill="none" stroke="#111" stroke-width="3"/><text x="168" y="1105" fill="#111" font-family="Arial, Helvetica, sans-serif" font-size="20">Q17: 13 ships</text>
<rect x="782" y="1070" width="612" height="100" fill="none" stroke="#111" stroke-width="3"/><text x="800" y="1105" fill="#111" font-family="Arial, Helvetica, sans-serif" font-size="20">Q18: 9 sounds</text>
<rect x="150" y="1180" width="620" height="100" fill="none" stroke="#111" stroke-width="3"/><text x="168" y="1215" fill="#111" font-family="Arial, Helvetica, sans-serif" font-size="20">Q19: 8 tens and 7 ones</text>
<rect x="782" y="1180" width="612" height="100" fill="none" stroke="#111" stroke-width="3"/><text x="800" y="1215" fill="#111" font-family="Arial, Helvetica, sans-serif" font-size="20">Q20: 17 stickers</text>
<rect x="150" y="1290" width="620" height="100" fill="none" stroke="#111" stroke-width="3"/><text x="168" y="1325" fill="#111" font-family="Arial, Helvetica, sans-serif" font-size="20">Q21: 5 programs</text>
<rect x="782" y="1290" width="612" height="100" fill="none" stroke="#111" stroke-width="3"/><text x="800" y="1325" fill="#111" font-family="Arial, Helvetica, sans-serif" font-size="20">Q22: 11 toy friends</text>
<rect x="150" y="1400" width="620" height="100" fill="none" stroke="#111" stroke-width="3"/><text x="168" y="1435" fill="#111" font-family="Arial, Helvetica, sans-serif" font-size="20">Q23: 7</text>
<rect x="782" y="1400" width="612" height="100" fill="none" stroke="#111" stroke-width="3"/><text x="800" y="1435" fill="#111" font-family="Arial, Helvetica, sans-serif" font-size="20">Q24: 13 animals</text>
<rect x="150" y="1510" width="620" height="100" fill="none" stroke="#111" stroke-width="3"/><text x="168" y="1545" fill="#111" font-family="Arial, Helvetica, sans-serif" font-size="20">Q25: 6 prizes</text>
<rect x="782" y="1510" width="612" height="100" fill="none" stroke="#111" stroke-width="3"/><text x="800" y="1545" fill="#111" font-family="Arial, Helvetica, sans-serif" font-size="20">Q26: 5 guests</text>
<rect x="150" y="1620" width="620" height="100" fill="none" stroke="#111" stroke-width="3"/><text x="168" y="1655" fill="#111" font-family="Arial, Helvetica, sans-serif" font-size="20">Q27: 4 medals</text>
<rect x="782" y="1620" width="612" height="100" fill="none" stroke="#111" stroke-width="3"/><text x="800" y="1655" fill="#111" font-family="Arial, Helvetica, sans-serif" font-size="20">Q28: 3 ships</text>
<rect x="150" y="1730" width="620" height="100" fill="none" stroke="#111" stroke-width="3"/><text x="168" y="1765" fill="#111" font-family="Arial, Helvetica, sans-serif" font-size="20">Q29: 12 points</text>
<rect x="782" y="1730" width="612" height="100" fill="none" stroke="#111" stroke-width="3"/><text x="800" y="1765" fill="#111" font-family="Arial, Helvetica, sans-serif" font-size="20">Q30: 12 boards</text>
<rect x="150" y="1840" width="620" height="100" fill="none" stroke="#111" stroke-width="3"/>
<rect x="782" y="1840" width="612" height="100" fill="none" stroke="#111" stroke-width="3"/>
  <g transform="translate(1400 1800) scale(0.45)" fill="none" stroke="#f18a5b" stroke-width="6"><path d="M100 8 190 62v112l-90 54-90-54V62Z"/><path d="M45 139h110"/><circle cx="153" cy="139" r="4" fill="#f18a5b"/>
    <text x="100" y="115" fill="#f18a5b" stroke="none" text-anchor="middle" font-family="Arial, Helvetica, sans-serif" font-size="78" font-weight="700">6</text>
    <text x="153" y="117" fill="#f18a5b" stroke="none" text-anchor="middle" font-family="Arial, Helvetica, sans-serif" font-size="28">pm</text>
    <text x="100" y="160" fill="#f18a5b" stroke="none" text-anchor="middle" font-family="Arial, Helvetica, sans-serif" font-size="25">studio</text>
  </g>
</svg>
